<?xml version="1.0" encoding="utf-8"?>
<!-- Generator: Adobe Illustrator 18.1.0, SVG Export Plug-In . SVG Version: 6.00 Build 0)  -->
<svg version="1.1" id="Layer_1" xmlns="http://www.w3.org/2000/svg" xmlns:xlink="http://www.w3.org/1999/xlink" x="0px" y="0px"
	 viewBox="-422 268 114 25" enable-background="new -422 268 114 25" xml:space="preserve">
<title>Group</title>
<g>
	<path fill="#00CD6F" d="M-420,268h4c1.1,0,2,0.9,2,2l0,0c0,1.1-0.9,2-2,2h-4c-1.1,0-2-0.9-2-2l0,0C-422,268.9-421.1,268-420,268z"
		/>
	<path fill="#00CD6F" d="M-414.3,275h14.5c1.1,0,2,0.9,2,2l0,0c0,1.1-0.9,2-2,2h-14.5c-1.1,0-2-0.9-2-2l0,0
		C-416.3,275.9-415.4,275-414.3,275z"/>
	<path fill="#00CD6F" d="M-420,282h10.6c1.1,0,2,0.9,2,2v0c0,1.1-0.9,2-2,2H-420c-1.1,0-2-0.9-2-2v0C-422,282.9-421.1,282-420,282z"
		/>
	<path fill="#00CD6F" d="M-403.7,282h4c1.1,0,2,0.9,2,2v0c0,1.1-0.9,2-2,2h-4c-1.1,0-2-0.9-2-2v0C-405.7,282.9-404.8,282-403.7,282z
		"/>
	<path fill="#00CD6F" d="M-410.2,268h10.6c1.1,0,2,0.9,2,2l0,0c0,1.1-0.9,2-2,2h-10.6c-1.1,0-2-0.9-2-2l0,0
		C-412.2,268.9-411.3,268-410.2,268z"/>
	<path fill="#00CD6F" d="M-420,289.1h20.3c1.1,0,2,0.9,2,2l0,0c0,1.1-0.9,2-2,2H-420c-1.1,0-2-0.9-2-2l0,0
		C-422,289.9-421.1,289.1-420,289.1z"/>
	<path fill="#00CD6F" d="M-420,275L-420,275c1.1,0,2,0.9,2,2l0,0c0,1.1-0.9,2-2,2h0c-1.1,0-2-0.9-2-2l0,0
		C-422,275.9-421.1,275-420,275z"/>
</g>
<g>
	<path d="M-385.1,277.5l1.5-3.6c0.2-0.4,0.3-0.6,0.5-0.8s0.5-0.2,0.9-0.2h3.8c0.7,0,1,0.2,1,0.7c0,0.3-0.1,0.6-0.3,0.8
		c-0.2,0.2-0.5,0.3-0.8,0.3h-0.2h-3.1l-1.1,2.7h0.9h0.2c0.5,0,0.8,0.2,0.8,0.7c0,0.3-0.1,0.5-0.3,0.7s-0.5,0.3-0.8,0.3h-0.2h-1.3
		l-1.6,4h5.1h0.2c0.5,0,0.8,0.2,0.8,0.7c0,0.3-0.1,0.6-0.3,0.8c-0.2,0.2-0.5,0.3-0.8,0.3h-0.2h-5.4l-0.1,0.2
		c-0.3,0.8-0.6,1.3-0.8,1.6c-0.2,0.3-0.4,0.6-0.8,0.9c-0.8,0.7-1.8,1.1-2.8,1.1c-0.9,0-1.6-0.3-2.1-0.8c-0.6-0.5-0.8-1.2-0.8-2
		c0-0.5,0.1-1,0.4-1.4s0.6-0.8,1-1c0.5-0.3,1.3-0.5,2.2-0.5h2.6l1.6-4h-0.1h-0.2c-0.5,0-0.8-0.2-0.8-0.7c0-0.3,0.1-0.5,0.3-0.7
		s0.5-0.3,0.8-0.3h0.2H-385.1z M-388.2,285h-1.9c-1,0-1.4,0.3-1.4,1c0,0.3,0.1,0.5,0.3,0.7c0.2,0.2,0.5,0.3,0.8,0.3
		c0.4,0,0.9-0.2,1.3-0.5C-388.8,286.1-388.4,285.7-388.2,285z"/>
	<path d="M-377.1,279.4l-0.1,0.3c-0.2,0.5-0.5,0.7-0.9,0.7c-0.2,0-0.4-0.1-0.5-0.2c-0.2-0.1-0.2-0.3-0.2-0.5c0-0.2,0.1-0.4,0.2-0.7
		l1-2c0.2-0.5,0.5-0.7,0.9-0.7c0.2,0,0.4,0.1,0.5,0.2c0.1,0.1,0.2,0.3,0.2,0.4c0,0,0,0.1,0,0.3c0,0.1,0,0.2,0,0.3
		c0,0.3,0.1,0.6,0.3,0.9l0.4,0.6c0.4,0.6,0.6,1.2,0.6,1.7c0,0.6-0.2,1.1-0.7,1.5c-0.5,0.4-1,0.6-1.7,0.6h-1.5
		c-0.6,0-0.9-0.2-0.9-0.6c0-0.3,0.1-0.5,0.3-0.7c0.2-0.2,0.5-0.3,0.9-0.3h0.8c0.7,0,1-0.2,1-0.7c0-0.2-0.1-0.4-0.2-0.6L-377.1,279.4
		z"/>
	<path d="M-371.9,279.4l-0.1,0.3c-0.2,0.5-0.5,0.7-0.9,0.7c-0.2,0-0.4-0.1-0.5-0.2c-0.2-0.1-0.2-0.3-0.2-0.5c0-0.2,0.1-0.4,0.2-0.7
		l1-2c0.2-0.5,0.5-0.7,0.9-0.7c0.2,0,0.4,0.1,0.5,0.2c0.1,0.1,0.2,0.3,0.2,0.4c0,0,0,0.1,0,0.3c0,0.1,0,0.2,0,0.3
		c0,0.3,0.1,0.6,0.3,0.9l0.4,0.6c0.4,0.6,0.6,1.2,0.6,1.7c0,0.6-0.2,1.1-0.7,1.5c-0.5,0.4-1,0.6-1.7,0.6h-1.5
		c-0.6,0-0.9-0.2-0.9-0.6c0-0.3,0.1-0.5,0.3-0.7c0.2-0.2,0.5-0.3,0.9-0.3h0.8c0.7,0,1-0.2,1-0.7c0-0.2-0.1-0.4-0.2-0.6L-371.9,279.4
		z"/>
	<path d="M-364.1,281.4h0.8c0.6,0,0.9,0.2,0.9,0.6c0,0.3-0.1,0.5-0.3,0.7c-0.2,0.2-0.5,0.3-0.9,0.3h-0.9c-0.4,0-0.7-0.2-0.9-0.5
		c-0.4,0.3-0.7,0.5-1.1,0.5h-0.8c-0.5,0-1-0.2-1.3-0.6c-0.3-0.4-0.5-0.9-0.5-1.5c0-0.9,0.3-1.8,1-2.5c0.6-0.7,1.4-1.1,2.2-1.1
		c0.6,0,1.1,0.2,1.4,0.7c0.2-0.4,0.6-0.5,1-0.5c0.2,0,0.4,0.1,0.5,0.2c0.1,0.1,0.2,0.3,0.2,0.5c0,0.1,0,0.3-0.1,0.5l-0.1,0.2
		L-364.1,281.4z M-366.8,281.5h0.2c0.4,0,0.7-0.2,0.8-0.5l0.5-1.3c0.1-0.2,0.1-0.3,0.1-0.4c0-0.1-0.1-0.2-0.2-0.3s-0.3-0.1-0.5-0.1
		c-0.4,0-0.7,0.2-1,0.6s-0.5,0.8-0.5,1.3C-367.4,281.2-367.2,281.5-366.8,281.5z"/>
	<path d="M-357.9,283.3h0.8c0.6,0,0.9,0.2,0.9,0.7c0,0.3-0.1,0.5-0.3,0.7s-0.5,0.2-0.9,0.2h-1.2c-0.1,0.4-0.4,1-0.8,1.7
		c-0.6,1.2-1.6,1.8-2.8,1.8c-0.7,0-1.4-0.2-1.9-0.7c-0.5-0.5-0.8-1.1-0.8-1.7c0-0.5,0.1-0.9,0.4-1.4c0.3-0.4,0.6-0.7,1.1-0.9
		c0.5-0.2,1.3-0.4,2.3-0.4h1.2l0.2-0.5c-0.4,0.2-0.7,0.2-1,0.2c-0.5,0-0.9-0.1-1.3-0.4c-0.3-0.3-0.5-0.6-0.5-1
		c0-0.3,0.1-0.6,0.3-1.2l0.8-2l0.1-0.2c0.2-0.6,0.6-0.8,1.1-0.8c0.2,0,0.4,0.1,0.5,0.2c0.1,0.1,0.2,0.3,0.2,0.5
		c0,0.1-0.1,0.4-0.2,0.7l-0.7,1.8c-0.1,0.3-0.2,0.5-0.2,0.5c0,0.2,0.1,0.4,0.5,0.4c0.2,0,0.5-0.1,0.7-0.2s0.4-0.3,0.4-0.4l1-2.4
		l0.1-0.2c0.2-0.6,0.6-0.8,1.1-0.8c0.2,0,0.4,0.1,0.5,0.2c0.1,0.1,0.2,0.3,0.2,0.5c0,0.1,0,0.3-0.1,0.5l-0.1,0.2L-357.9,283.3z
		 M-360.3,284.9h-1c-1.1,0-1.7,0.4-1.7,1.1c0,0.2,0.1,0.4,0.2,0.6c0.2,0.2,0.4,0.2,0.6,0.2c0.4,0,0.7-0.1,0.9-0.4
		C-361,286.1-360.6,285.6-360.3,284.9z"/>
	<path d="M-349.2,278l0.7,0.8l0.4,0.5c0.8,0.9,1.1,1.9,1.1,2.9c0,1-0.3,1.9-1,2.6c-0.9,1-2.1,1.6-3.6,1.6c-1.1,0-2.1-0.4-2.8-1.1
		c-0.7-0.7-1.1-1.6-1.1-2.7c0-1.3,0.6-2.5,1.7-3.3c0.6-0.5,1.2-0.7,1.7-0.7c0.3,0,0.5,0.1,0.6,0.2s0.2,0.3,0.2,0.6
		c0,0.3-0.2,0.6-0.6,0.8l-0.6,0.4c-0.3,0.2-0.6,0.5-0.8,0.9s-0.3,0.7-0.3,1.1c0,0.6,0.2,1.1,0.6,1.4c0.4,0.4,0.9,0.6,1.5,0.6
		c0.7,0,1.3-0.3,1.7-0.8c0.5-0.5,0.7-1.1,0.7-1.8c0-0.4-0.1-0.8-0.3-1.2c-0.2-0.4-0.6-0.9-1.3-1.6c-0.5-0.5-0.8-1-1-1.3h-2
		c-0.7,0-1-0.2-1-0.7c0-0.3,0.1-0.6,0.4-0.8c0.2-0.2,0.6-0.3,1-0.3h1.3c0.1-1,0.5-1.8,1.3-2.4c0.8-0.6,1.7-0.9,2.8-0.9
		c0.8,0,1.5,0.2,2,0.7c0.5,0.5,0.8,1,0.8,1.8c0,1-0.4,1.7-1.2,2.2c-0.5,0.3-1.2,0.4-2.2,0.4H-349.2z M-350.1,276.3h1.8
		c1,0,1.5-0.3,1.5-0.9c0-0.2-0.1-0.4-0.3-0.5c-0.2-0.1-0.5-0.2-0.8-0.2c-0.5,0-1,0.2-1.4,0.5C-349.9,275.5-350.1,275.9-350.1,276.3z
		"/>
	<path d="M-343.9,280.9c0,0.4,0.3,0.5,0.8,0.5h2.2c0.6,0,0.9,0.2,0.9,0.7c0,0.3-0.1,0.5-0.3,0.7c-0.2,0.2-0.5,0.2-0.9,0.2h-2.1
		c-0.8,0-1.4-0.2-1.8-0.6c-0.4-0.4-0.6-0.9-0.6-1.7c0-0.9,0.3-1.8,1-2.4c0.6-0.7,1.4-1,2.3-1c0.6,0,1.2,0.2,1.5,0.5
		c0.4,0.3,0.6,0.8,0.6,1.3c0,0.7-0.3,1.1-0.8,1.5c-0.3,0.2-0.7,0.3-1.3,0.3H-343.9z M-343.6,279.6h0.8c0.5,0,0.8-0.1,0.8-0.3
		c0-0.3-0.2-0.4-0.5-0.4C-342.9,278.8-343.3,279.1-343.6,279.6z"/>
	<path d="M-337.9,279l-0.2,0.6c-0.2,0.5-0.5,0.8-0.9,0.8c-0.2,0-0.4-0.1-0.5-0.2s-0.2-0.3-0.2-0.5c0-0.1,0.1-0.3,0.2-0.6l0.8-2
		c0.2-0.5,0.5-0.7,0.8-0.7c0.4,0,0.6,0.2,0.7,0.5l0.1,0.2c0,0.1,0.1,0.2,0.1,0.2s0.2,0,0.4,0h1.7c0.6,0,1,0.2,1,0.7
		c0,0.6-0.4,0.9-1.2,0.9l-0.1,0.1c-0.8,0.7-1.2,1.3-1.2,1.7c0,0.4,0.2,0.6,0.7,0.6h0.9c0.6,0,0.9,0.2,0.9,0.6c0,0.3-0.1,0.5-0.3,0.7
		c-0.2,0.2-0.5,0.2-0.9,0.2h-1.4c-0.5,0-0.9-0.2-1.2-0.5c-0.3-0.3-0.5-0.8-0.5-1.3c0-0.3,0.1-0.7,0.2-1s0.5-0.7,0.9-1.2H-337.9z"/>
	<path d="M-331.7,280.5l1.7-2.3l0.1-0.2c0.3-0.4,0.6-0.6,1-0.6c0.2,0,0.4,0.1,0.6,0.2s0.2,0.3,0.2,0.6c0,0.2-0.1,0.6-0.4,0.9
		l-2.7,3.5c-0.3,0.4-0.7,0.6-1.1,0.6c-0.3,0-0.6-0.1-0.8-0.4c-0.2-0.2-0.3-0.6-0.3-1c0-0.1,0-0.2,0-0.2l0.3-2.9
		c0-0.4,0.1-0.7,0.3-0.9c0.2-0.2,0.4-0.3,0.7-0.3c0.5,0,0.7,0.2,0.7,0.7c0,0.1,0,0.2,0,0.4L-331.7,280.5z"/>
	<path d="M-326.5,281.4h0.8c0.6,0,0.9,0.2,0.9,0.7c0,0.3-0.1,0.5-0.3,0.7c-0.2,0.2-0.5,0.2-0.9,0.2h-1.2c-0.4,0-0.8-0.1-1-0.3
		c-0.2-0.2-0.4-0.4-0.4-0.7c0-0.2,0.1-0.4,0.2-0.6l1.2-3l0.1-0.2c0.2-0.6,0.6-0.8,1.1-0.8c0.2,0,0.4,0.1,0.5,0.2s0.2,0.3,0.2,0.5
		c0,0.2-0.1,0.4-0.2,0.7L-326.5,281.4z M-325.5,275.1c0.3,0,0.5,0.1,0.7,0.3c0.2,0.2,0.3,0.4,0.3,0.7s-0.1,0.5-0.3,0.7
		c-0.2,0.2-0.4,0.3-0.7,0.3s-0.5-0.1-0.7-0.3c-0.2-0.2-0.3-0.4-0.3-0.7s0.1-0.5,0.3-0.7C-326.1,275.2-325.8,275.1-325.5,275.1z"/>
	<path d="M-320.3,283h-2.1c-0.6,0-1.1-0.2-1.5-0.6c-0.4-0.4-0.6-1-0.6-1.7c0-0.9,0.3-1.7,0.9-2.4c0.6-0.7,1.4-1,2.2-1
		c0.6,0,1,0.2,1.4,0.5s0.5,0.7,0.5,1.3c0,0.4-0.1,0.7-0.3,0.9c-0.2,0.2-0.4,0.3-0.7,0.3c-0.4,0-0.7-0.2-0.7-0.6c0-0.1,0-0.1,0-0.2
		c0-0.1,0-0.1,0-0.2c0-0.3-0.2-0.5-0.5-0.5c-0.3,0-0.6,0.2-0.9,0.5s-0.4,0.7-0.4,1.1c0,0.3,0.1,0.6,0.3,0.7c0.2,0.1,0.6,0.2,1.1,0.2
		h1.4c0.6,0,0.9,0.2,0.9,0.7c0,0.3-0.1,0.5-0.3,0.7C-319.6,283-319.9,283-320.3,283z"/>
	<path d="M-317,280.9c0,0.4,0.3,0.5,0.8,0.5h2.2c0.6,0,0.9,0.2,0.9,0.7c0,0.3-0.1,0.5-0.3,0.7s-0.5,0.2-0.9,0.2h-2.1
		c-0.8,0-1.4-0.2-1.8-0.6c-0.4-0.4-0.6-0.9-0.6-1.7c0-0.9,0.3-1.8,1-2.4c0.6-0.7,1.4-1,2.3-1c0.6,0,1.2,0.2,1.5,0.5
		c0.4,0.3,0.6,0.8,0.6,1.3c0,0.7-0.3,1.1-0.8,1.5c-0.3,0.2-0.7,0.3-1.3,0.3H-317z M-316.7,279.6h0.8c0.5,0,0.8-0.1,0.8-0.3
		c0-0.3-0.2-0.4-0.5-0.4C-316.1,278.8-316.4,279.1-316.7,279.6z"/>
</g>
</svg>
