<?xml version="1.0" encoding="utf-8"?>
<!-- Generator: Adobe Illustrator 18.1.0, SVG Export Plug-In . SVG Version: 6.00 Build 0)  -->
<svg version="1.1" id="Layer_1" xmlns="http://www.w3.org/2000/svg" xmlns:xlink="http://www.w3.org/1999/xlink" x="0px" y="0px"
	 viewBox="20 184.3 976 211.4" enable-background="new 20 184.3 976 211.4" xml:space="preserve">
<g>
	<path fill="#00CD6F" d="M36.8,184.3h33.7c9.3,0,16.8,7.6,16.8,16.8l0,0c0,9.3-7.6,16.8-16.8,16.8H36.8c-9.3,0-16.8-7.6-16.8-16.8
		l0,0C20,191.9,27.6,184.3,36.8,184.3z"/>
	<path fill="#00CD6F" d="M84.8,243.3h122.1c9.3,0,16.8,7.6,16.8,16.8l0,0c0,9.3-7.6,16.8-16.8,16.8H84.8c-9.3,0-16.8-7.6-16.8-16.8
		l0,0C68,250.8,75.6,243.3,84.8,243.3z"/>
	<path fill="#00CD6F" d="M36.8,302.2h89.3c9.3,0,16.8,7.6,16.8,16.8l0,0c0,9.3-7.6,16.8-16.8,16.8H36.8c-9.3,0-16.8-7.6-16.8-16.8
		l0,0C20,309.8,27.6,302.2,36.8,302.2z"/>
	<path fill="#00CD6F" d="M174.1,302.2h33.7c9.3,0,16.8,7.6,16.8,16.8l0,0c0,9.3-7.6,16.8-16.8,16.8h-33.7c-9.3,0-16.8-7.6-16.8-16.8
		l0,0C157.3,309.8,164.8,302.2,174.1,302.2z"/>
	<path fill="#00CD6F" d="M119.4,184.3h89.3c9.3,0,16.8,7.6,16.8,16.8l0,0c0,9.3-7.6,16.8-16.8,16.8h-89.3c-9.3,0-16.8-7.6-16.8-16.8
		l0,0C102.5,191.9,110.1,184.3,119.4,184.3z"/>
	<path fill="#00CD6F" d="M36.8,362h170.9c9.3,0,16.8,7.6,16.8,16.8l0,0c0,9.3-7.6,16.8-16.8,16.8H36.8c-9.3,0-16.8-7.6-16.8-16.8
		l0,0C20,368.7,27.6,362,36.8,362z"/>
	<path fill="#00CD6F" d="M36.8,243.3L36.8,243.3c9.3,0,16.8,7.6,16.8,16.8l0,0c0,9.3-7.6,16.8-16.8,16.8l0,0
		c-9.3,0-16.8-7.6-16.8-16.8l0,0C20,250.8,27.6,243.3,36.8,243.3z"/>
</g>
<g>
	<path fill="#191919" d="M300.2,225.3c1.9-0.6,3.7-1.2,5.1-1.2c0.6,0,3.9,0,6.4,0c4.5,0,5.9,0.6,8.4,2c3.1,1.9,4.5,3.3,4.5,6.4
		c0,2.5-0.6,3.1-2.5,4.5c-0.6,0.6-2.7,1.9-3.3,2.5c-2,0.6-11.5,3.1-19.9,4.5c-3.9,1.4-3.7,1.2-3.1,5.1c0,2.5-0.8,12.1-1.4,21.1
		c-1.9,52.7-3.1,71.2-7,86c-0.6,2.5-5.7,6.4-9.6,5.9c-3.1,0-7-2-8.4-5.9c-1.4-2-1.4-39.2,0-57.7c0-7,0.6-21.1,0.6-32
		c0-19.3,0.2-19.3-3.7-19.3c-4.5,0-16.8-1.4-18.7-2c-3.1-1.4-5.7-2.5-7-4.5c-2-3.9-0.4-7.4,7.2-9.4c1.4-0.6,9-0.2,14-0.2
		c5.9,0,12.9-0.8,15.4-1.4C286.7,228.4,296.3,226.7,300.2,225.3z"/>
	<path fill="#191919" d="M332.3,263.7c1-35.3,1-35.3,3.9-37.2c3.9-2.9,12.3-2.9,16.2-1c5.7,2.9,6.6,6.6,5.7,24.8c0,9.6,0,23,0,29.6
		c-1,6.6-1,12.5-1,12.5s2.9-2,6.8-3.9c4.7-2,6.6-2.9,12.3-2.9s6.6,0,10.5,2.9c6.6,4.7,9.6,13.3,12.5,34.3c2,13.5,2,22.8,0,25.7
		c-2.9,7.6-20.1,6.8-22-0.8c0-1-1-5.7,0-9.6c0-9.6-0.8-33.5-2.7-39.2c-1-4.7-1-4.9-3.9-3.9c-2,0-5.7,2-8.6,3.9
		c-4.7,2.9-4.9,2.7-4.9,6.6c-1,6.6-3.7,39.2-5.7,43.9c-2,8.6-11.5,12.5-16.2,6.8c-3.9-3.9-4.9-8.8-3.9-34.5
		C331.4,309.3,332.3,283.8,332.3,263.7z"/>
	<path fill="#191919" d="M415,281.3c4.5-5.7,13.5-10.3,21.3-11.1c8.4-1.2,16.4,0.2,22.6,4.7c3.7,2.7,7.2,7.6,8,10.7
		c1.2,5.9-1.8,12.9-9.6,18.7c-1.2,0.8-2.5,1.4-2.9,1.8c-0.4,0.4-1.8,1.4-2.9,2.1c-5.9,3.7-15,5.7-19.5,4.9c-2-0.4-3.3-2.1-3.3-3.3
		c0-1.4,2-3.3,3.3-3.7c1.4-0.4,7.4-3.5,10.1-5.5c4.7-3.1,8.6-8.4,8.2-11.5c0-3.7-4.5-7.4-8.2-7.4c-4.1-0.4-9,3.9-11.3,9.6
		c-2.3,4.7-2.9,5.7-2.9,13.5c0,6.2,0.2,6,1.6,10.5c2,4.7,4.1,8,6.8,10.3c2.3,2,3.7,2,5.1,2c2.3,0,4.7-1.4,9.2-5.9
		c2.7-2.7,4.9-4.5,6.8-5.7c2.3-1.2,2.1-1,6.2-1s6.4,1,7.8,2.3c4.7,5.9-3.1,16.2-15.2,20.9c-5.1,2.3-9.6,3.3-15.4,3.3
		c-15.8,0-27.5-8-32.2-22.2c-2-5.7-2.3-9.9-2-16.2C407,294.3,409.4,287.9,415,281.3z"/>
	<path fill="#191919" d="M486,276.4c4.9-4.5,11.7-8.4,18.1-9.9c4.9-1.6,13.8-1,18.7,0.6c3.5,1.6,8.6,5.7,10.1,9.4
		c1.6,2.9,1.6,10.5,0,12.9c-2.7,4.5-10.7,6.4-15.2,3.5c-1.6-1.6-1.6-2.1-1.6-5.9c0.8-5.3-1.6-9.2-4.3-9.2c-2.3,0-8.6,4.9-10.9,7.8
		c-2.3,2.9-2,6,0.8,9.8c2.7,2.9,3.5,3.1,12.9,6c17.6,4.5,24.8,9.8,24,19.7c0,7.6-4.5,13.8-12.3,18.3c-4.5,2.3-5.8,2.1-14.4,2.1
		c-9.4,0.8-14.6,0.2-22.4-3.5c-4.5-2.3-5.9-4.1-5.1-7c0-2.3,1.2-3.9,5.7-5.5c2.7-0.8,3.7-0.6,8.2,1c2.7,0.8,7,1.6,9.4,1.6
		c5.9,0.8,7.8-0.8,9.4-4.5c1.6-2.3,1.6-3.1,0-4.7c-1.6-2.3-4.5-3.9-11.7-5.5c-17.6-4.5-25.9-12.1-25.9-23.4
		C478.6,284.8,481.1,280.9,486,276.4z"/>
	<path fill="#191919" d="M552.9,302.7c0.6-5.5,2.3-9,4.7-10.1c1.2-1.2,3.1-1.4,4.9-1.4c2.3,0,3.1,0.2,5.5,2
		c2.3,2.9,2.9,4.9,4.7,16.2c1.2,13.8,1.2,31,0,37.6c-1.8,7.2-4.1,10.3-8.4,12.7c-2.9,1.8-4.3,1.8-7.8,1.8c-6,0.6-9.6-1.2-10.7-4.1
		c-1.2-2.3-1.2-2.5,0.6-6c2.3-4.3,3.5-12.7,3.5-20.5C550.4,325.9,551.7,309.9,552.9,302.7z M550.9,276.4c0-4.3,2-7.4,4.9-8.6
		c3.5-1.8,10.3-0.4,12.7,2.5c0.6,0.6,1.2,2.3,1.8,4.7c0,2.9,0,4.3-0.6,5.5c-1.8,3.5-10.1,4.7-14.4,2.9
		C550.9,281.1,550.4,279.9,550.9,276.4z"/>
	<path fill="#191919" d="M586.6,276.4c4.9-4.5,11.7-8.4,18.1-9.9c4.9-1.6,13.8-1,18.7,0.6c3.5,1.6,8.6,5.7,10.1,9.4
		c1.6,2.9,1.6,10.5,0,12.9c-2.7,4.5-10.7,6.4-15.2,3.5c-1.6-1.6-1.6-2.1-1.6-5.9c0.8-5.3-1.6-9.2-4.3-9.2c-2.3,0-8.6,4.9-10.9,7.8
		c-2.3,2.9-1.9,6,0.8,9.8c2.7,2.9,3.5,3.1,12.9,6c17.6,4.5,24.8,9.8,24,19.7c0,7.6-4.5,13.8-12.3,18.3c-4.5,2.3-5.8,2.1-14.4,2.1
		c-9.4,0.8-14.6,0.2-22.4-3.5c-4.5-2.3-5.9-4.1-5.1-7c0-2.3,1.2-3.9,5.7-5.5c2.7-0.8,3.7-0.6,8.2,1c2.7,0.8,7,1.6,9.4,1.6
		c5.8,0.8,7.8-0.8,9.4-4.5c1.6-2.3,1.6-3.1,0-4.7c-1.6-2.3-4.5-3.9-11.7-5.5C588.4,309,580,301.4,580,290
		C579.2,284.8,581.7,280.9,586.6,276.4z"/>
	<path fill="#191919" d="M647.3,263.3c0.6-37.8-0.2-35.1,6.6-37.8c5.5-2,10.9-1.4,15.6,2.7c2,1.4,2,1.2,4.7,0.6
		c4.7-2,8.8-3.1,15.6-2.5c6.8,0,16.8,1.4,18.1,3.3l1.4,0.6c2,0,9,4.9,10.9,8.2c2.7,2.7,6,9.4,7.4,13.5c0,2,0.6,6.2,0.6,10.9
		c0,6-0.8,8-1.4,12.1c-1.4,2-1.9,4.1-1.9,4.1c-0.6,0.6-1.4,1.4-1.4,2.7c-0.6,0.6-2.7,3.3-4.7,5.3c-8.8,8.2-20.3,11.5-37.8,11.5
		c-8.2,0-9.6,0.8-9.6,1.4c0,4.1-1.4,27.7-2,33.2c-2.7,24.4-4.7,29.1-13.5,29.1c-4.1,0-4.9-0.2-6.8-2.1c-1.4-1.9-2.7-3.3-2.7-6
		c-1.4-4.1-1.2-30.4-0.6-46.6C646.5,301.2,647.3,281.7,647.3,263.3z M700.5,258.6c0-11.5-2-17-6.6-21.1c-2.7-1.4-3.5-1.2-8.2-1.2
		c-2.7,0-6.8,0-8.8,0.6c-3.3,0.6-3.3,0.6-2.7,10.7c0,5.5-0.8,16.4-1.4,23.8c0,7.4,0,14,0,14c0,0.6,4.1,0,8.2,0
		c9.4-1.4,12.1-2.5,15.4-8C699.7,271.5,700.5,266.8,700.5,258.6z"/>
	<path fill="#191919" d="M767.2,268c0-0.8,1.8-1.8,3.5-1.8c3.1-1.8,9.6-0.8,13.5,1.8c2.5,0.8,6.4,4.1,9.6,6.6
		c18.3,19.9,15.4,49.7-7.2,60.6c-14.4,6.6-32.4,3.9-41.9-7.6c-5.7-5.9-7-11.3-6.2-19.7c0.8-13.5,4.7-23.4,11.1-30
		c4.9-4.1,8.8-6.8,14.4-7.6C765.6,270.3,767.2,269.8,767.2,268z M783.4,313.6c3.1-9.2,1.8-21.6-5.7-30c-3.9-5.1-6.2-5.1-11.9,0.8
		c-3.1,3.3-5.7,9.4-7.4,18.5c-0.8,9.2-0.2,13.3,2.9,17.4c2.5,3.3,7.4,5.8,9.9,5.1C775.2,324.6,780.8,318.7,783.4,313.6z"/>
	<path fill="#191919" d="M818.3,273.9c0.6-0.6,3.3-2.1,6-2.7c2.7,0,5.9,0,8.6,1.4c3.3,2,4.9,4.7,4.9,10.1c0,4.1-0.2,3.9,2.5,2
		c6-4.1,9.4-6,14.8-6c8,0,11.3,2.7,15.4,11.5c2,4.7,2,8.8,0,10.7c-3.3,2.7-9.2,3.9-14.6,2c-3.3-0.6-5.5-3.3-6-7.4
		c-0.6-3.3-0.8-3.3-3.5-2.7c-1.4,1.4-3.9,2.1-5.3,2.7c-2.7,1.4-2.7,1.4-2.1,4.1c0,1.4,0.8,9.4,1.4,16.8c1.4,16.2,0.6,26.9-1.4,31
		c-2.7,4.1-8,6.6-14.6,6.6c-9.4,0-14.2-5.5-10.9-11.5c1.4-2.7,1.4-2.7,1.4-33C814.8,277.8,815,278,818.3,273.9z"/>
	<path fill="#191919" d="M891.8,227.6c1.4-1.4,2.5-2.1,3.9-2.7c4.7-1.4,11.3-0.6,14.6,1.4c4.7,3.3,6,11.3,5.5,30
		c-0.6,6.6-0.8,11.9-0.8,11.9c0,0.6,2,0,4.7-0.6c3.9-0.6,4.7-0.6,8,0c6,2,7.4,5.9,2.7,8.6c-2,1.4-8,2.7-14,4.1
		c-2,0.6-2.1,0.6-2.7,5.3c0,2.7-0.6,11.3-1.2,19.9c0,8-0.8,17.4-1.4,20.1c-0.6,10.7,0,19.9,1.9,19.3c0.6,0,1.4-2.1,2-4.1
		c0-1.4,1.4-3.9,2.7-5.3c1.4-1.4,2-1.9,4.7-1.4c3.9,0,5.3,0.8,8,2.7c3.9,3.9,3.1,11.3-0.8,16c-7.4,7.4-19.9,9.2-30.6,3.9
		c-3.9-1.9-8.6-6.6-9.2-8.6c-0.6-1.4-0.8-2.7-1.4-2.7c-0.6-1.4-1.4-19.9-0.8-35.9c2-32,2-28.1,0-28.7c-1.4,0-3.3-0.6-4.7-0.6
		c-2.7-0.6-5.3-3.3-5.3-4.7c0-2.7,2.7-4.1,7.4-4.7c4.7-0.6,4.7-0.6,5.3-9.9c0-5.3,0.6-14.6,0-20.7
		C890.4,229.6,890.4,229.6,891.8,227.6z"/>
	<path fill="#191919" d="M952.4,285c2.3-1.6,13.5-4.3,17.4-4.9c8.2-1.6,14.6-0.4,19.7,2.3c3.1,2,8.2,6.8,9.6,10.1
		c1.4,2.7,2.1,7.2,2.7,11.9c0.6,3.3-1,24.2-2.3,45.8c-0.6,8.2-0.4,8.2,1.4,9.8c1.2,1.6,1.4,1.2,1.4,2.7c0,2-0.4,2.7-1.8,4.3
		c-3.1,3.3-8.4,4.7-14.4,3.1c-6-1.6-9.6-4.3-10.9-8c-0.6-2-0.2-1.6-5.3-2.1c-14,0-25.5-5.7-29.3-14.2c-1.8-3.7-1.8-9.9-0.4-14.2
		c2.3-5.9,9.8-11.5,17-13.1c3.7-1.2,12.7-1.2,17,0c1.4,0,3.1,0,3.1,0c0.6-0.6,2-15,1.4-17.7c-0.6-2.7-1.6-7.6-2.9-8.8
		c-1.2-1.2-9.8-2.1-15.2-1c-5.1,0.6-9.6,0-10.7-1.6C949.1,288.3,950.1,286.5,952.4,285z M975.8,336.6c0.6-4.7,1-9.4,1-9.9
		s-0.6-0.4-4.5-0.4c-3.9,0-5.7-0.2-7.4,1c-5.5,2.5-7.2,9.6-4.5,15.8c2.3,4.7,4.3,6,10.9,6.6C975.3,350.3,974.5,351.7,975.8,336.6z"
		/>
</g>
</svg>
