<?xml version="1.0" encoding="utf-8"?>
<!-- Generator: Adobe Illustrator 18.1.0, SVG Export Plug-In . SVG Version: 6.00 Build 0)  -->
<svg version="1.1" id="Layer_1" xmlns="http://www.w3.org/2000/svg" xmlns:xlink="http://www.w3.org/1999/xlink" x="0px" y="0px"
	 viewBox="20 184.3 966 211.4" enable-background="new 20 184.3 966 211.4" xml:space="preserve">
<title>Group</title>
<g>
	<path fill="#00CD6F" d="M36.8,184.3h33.7c9.3,0,16.8,7.6,16.8,16.8l0,0c0,9.3-7.6,16.8-16.8,16.8H36.8c-9.3,0-16.8-7.6-16.8-16.8
		l0,0C20,191.9,27.6,184.3,36.8,184.3z"/>
	<path fill="#00CD6F" d="M84.8,243.3h122.1c9.3,0,16.8,7.6,16.8,16.8l0,0c0,9.3-7.6,16.8-16.8,16.8H84.8c-9.3,0-16.8-7.6-16.8-16.8
		l0,0C68,250.8,75.6,243.3,84.8,243.3z"/>
	<path fill="#00CD6F" d="M36.8,302.2h89.3c9.3,0,16.8,7.6,16.8,16.8l0,0c0,9.3-7.6,16.8-16.8,16.8H36.8c-9.3,0-16.8-7.6-16.8-16.8
		l0,0C20,309.8,27.6,302.2,36.8,302.2z"/>
	<path fill="#00CD6F" d="M174.1,302.2h33.7c9.3,0,16.8,7.6,16.8,16.8l0,0c0,9.3-7.6,16.8-16.8,16.8h-33.7c-9.3,0-16.8-7.6-16.8-16.8
		l0,0C157.3,309.8,164.8,302.2,174.1,302.2z"/>
	<path fill="#00CD6F" d="M119.4,184.3h89.3c9.3,0,16.8,7.6,16.8,16.8l0,0c0,9.3-7.6,16.8-16.8,16.8h-89.3c-9.3,0-16.8-7.6-16.8-16.8
		l0,0C102.5,191.9,110.1,184.3,119.4,184.3z"/>
	<path fill="#00CD6F" d="M36.8,362h170.9c9.3,0,16.8,7.6,16.8,16.8l0,0c0,9.3-7.6,16.8-16.8,16.8H36.8c-9.3,0-16.8-7.6-16.8-16.8
		l0,0C20,368.7,27.6,362,36.8,362z"/>
	<path fill="#00CD6F" d="M36.8,243.3L36.8,243.3c9.3,0,16.8,7.6,16.8,16.8l0,0c0,9.3-7.6,16.8-16.8,16.8l0,0
		c-9.3,0-16.8-7.6-16.8-16.8l0,0C20,250.8,27.6,243.3,36.8,243.3z"/>
</g>
<g>
	<path fill="#191919" d="M336,17.3c-13.7,2.1-26.4,4.8-38,8.1c-2.5,0.9-4.4,1.3-5.7,1.3c-1.6,0-2.9-0.7-4-2.2c-0.7-0.8-1-1.8-1-2.9
		c0-2.9,2.1-5.1,6.4-6.5c11.3-3.4,24.7-6.6,40.1-9.4c19.3-3.5,37.8-5.2,55.6-5.2c6,0,10,0.4,12.1,1.1c1.9,0.7,2.9,2,2.9,3.9
		c0,3.2-2.4,5.1-7.1,5.6c-4.1,0.4-10.3,0.7-18.6,0.9c-16.5,0.5-27.8,1.6-33.8,3.1c1.7,0.7,2.6,1.7,2.6,3.2c0,1.5-1.1,3.9-3.3,7.1
		c-13,19-25.4,40.6-37.2,64.7c-9,18.3-15.6,34.6-19.8,48.8c-1,4.3-2.6,6.5-4.9,6.5c-2.1,0-3.9-1.1-5.3-3.3c-1-1.4-1.4-2.9-1.4-4.5
		c0-6.3,6-21.6,17.9-45.9c7.7-15.7,14.7-28.8,21.2-39.6c2.6-4.4,8.9-14.5,18.8-30.5L336,17.3z"/>
	<path fill="#191919" d="M374.2,92.1c5.1-5.3,10.1-9.7,15.2-13.2c6.5-4.5,11.1-6.8,13.9-6.8c1.2,0,2.3,0.5,3.4,1.4
		c1.2,1.1,1.8,2.4,1.8,3.8c0,1.8-1.5,4.7-4.4,8.6c-5.7,7.5-10,14.4-12.9,20.5c-2.6,5.3-3.9,9-3.9,10.9c0,1.8,0.9,2.8,2.7,2.8
		c3.7,0,9.9-6.6,18.7-19.7c1.8-2.7,3.4-4,4.8-4s2.2,0.8,2.2,2.5c0,2.7-2.6,7.8-7.8,15.3c-4.5,6.6-9.2,11.6-14.2,15.1
		c-3.5,2.4-6.6,3.6-9.4,3.6c-2.9,0-5.1-1.3-6.4-3.8c-0.8-1.6-1.2-3.3-1.2-5.2c0-6.1,2.2-13,6.5-20.8c1-1.8,4.1-7.1,9.2-15.8
		c-13.9,7-25.7,22.3-35.4,45.6c-0.9,2.7-2.3,4-4.1,4c-1.3,0-2.4-0.4-3.2-1.3c-0.8-1-1.2-2.1-1.2-3.5c0-2.3,2.2-8.6,6.6-19.2
		c8.1-19.5,15.7-36.1,22.8-49.6c7-13.7,14.9-27.9,23.5-42.6c2.1-3.6,3.7-5.9,4.8-7.2c1.2-1.2,2.4-1.8,3.7-1.8c1.2,0,2.3,0.7,3.2,1.9
		c0.7,1,1,2.1,1,3.3c0,1.9-1.1,4.5-3.3,7.7c-7.4,11.4-14.7,24-22,37.6C380.8,76.8,376,86.7,374.2,92.1z"/>
	<path fill="#191919" d="M422.9,114.3v1.8c0,1.5,0.4,2.8,1.1,3.9c1.7,2.5,4.5,3.8,8.4,3.8c8.5,0,18.4-6.6,29.6-19.7
		c2-2.3,3.7-3.4,5-3.4c0.8,0,1.4,0.4,2.1,1.1c0.4,0.5,0.6,1.1,0.6,1.5c0,2.7-3.3,7.2-9.8,13.5c-5.1,5-10.6,9.1-16.4,12.2
		c-5.8,3.1-11.2,4.7-16.2,4.7c-5.1,0-9.2-1.8-12.1-5.3c-2-2.5-3-5.8-3-10c0-11.6,5.4-22.9,16.3-33.9c8.8-9,16.5-13.5,23.1-13.5
		c1.8,0,3.4,0.5,4.8,1.6c1.8,1.4,2.7,3.3,2.7,5.6c0,3.6-1.7,8.1-5,13.3C447.2,102.6,436.8,110.1,422.9,114.3z M425.2,106.3
		c4.8-1.6,8.5-3.5,11.3-5.5c4.8-3.7,8.6-7.9,11.4-12.5c1-1.6,1.5-3.1,1.5-4.4c0-1.4-0.7-2.1-1.9-2.1c-1.8,0-4.3,1.3-7.6,4
		C434,90.5,429.1,97.4,425.2,106.3z"/>
	<path fill="#191919" d="M519.6,65.9c4.2,0,7.4,0.8,9.5,2.3c2.1,1.5,3.2,3.8,3.2,6.9c0,4-1.5,7.9-4.5,11.7
		c-2.9,3.6-7.2,6.4-12.9,8.6c-3.1,1.2-5.8,1.7-7.9,1.7c-2.9,0-4.3-1.3-4.3-3.8c0-1.7,0.8-3,2.5-3.9c0.4-0.2,2.7-0.8,7-1.7
		c2.5-0.5,4.9-1.7,7-3.6c1.8-1.6,2.8-3.3,2.8-5.1c0-1.4-0.4-2.5-1.2-3.2c-0.8-0.7-2.1-1-3.7-1c-4,0-8.3,1.6-13.1,4.8
		c-5.5,3.6-8.3,7.9-8.3,12.9c0,3.6,1.8,8,5.4,13.3c4,5.8,6,10.7,6,14.8c0,6-2.7,10.7-8,14.2c-3.3,2.1-7,3.2-11.2,3.2
		c-6.6,0-11.6-2.4-15-7.1c-2.4-3.3-3.6-7.3-3.6-11.9c0-5.3,1.4-9.8,4.1-13.4c1.8-2.4,3.6-3.6,5.5-3.6c1.7,0,2.6,0.7,2.6,2.1
		c0,0.5-0.3,1.4-0.9,2.5c-1.6,2.9-2.4,6.4-2.4,10.4c0,3.4,1.2,6.2,3.6,8.5c2.1,2.1,4.5,3.1,7.3,3.1c2.7,0,4.8-0.9,6.3-2.7
		c1.2-1.5,1.8-3.4,1.8-5.7c0-2.9-1.6-6.6-4.9-11.2c-4.5-6.3-6.8-12-6.8-17.1c0-6.8,3.7-12.9,11.2-18.1
		C503.9,68.4,511.6,65.9,519.6,65.9z"/>
	<path fill="#191919" d="M552.9,72.6c1.2,0,2.1,0.4,2.9,1.3c0.5,0.8,0.8,1.5,0.8,2.3c0,1.2-1,3.3-3,6.2c-7.1,11-12.2,20.1-15.2,27.2
		c-3.2,7.3-6,14.8-8.5,22.6c-1.1,3.4-2.8,5.1-5.1,5.1c-1.4,0-2.5-0.5-3.3-1.6c-0.8-0.9-1.1-1.8-1.1-2.9c0-2.1,2.2-8.9,6.6-20.5
		c3.4-9.2,9-19.3,16.6-30.4c2.5-3.6,4.3-6,5.5-7.3C550.3,73.2,551.6,72.6,552.9,72.6z M572.3,34.5c3.1,0,4.6,1.6,4.6,4.7
		c0,2.9-1.5,6-4.5,9.5c-2.9,3.4-5.6,5-8.3,5c-1.3,0-2.4-0.5-3.2-1.4c-0.8-0.9-1.2-2-1.2-3.3c0-3.3,1.8-6.8,5.4-10.5
		C567.8,35.9,570.2,34.5,572.3,34.5z"/>
	<path fill="#191919" d="M600.8,65.9c4.2,0,7.4,0.8,9.5,2.3c2.1,1.5,3.2,3.8,3.2,6.9c0,4-1.5,7.9-4.5,11.7
		c-2.9,3.6-7.2,6.4-12.9,8.6c-3.1,1.2-5.8,1.7-7.9,1.7c-2.9,0-4.3-1.3-4.3-3.8c0-1.7,0.8-3,2.5-3.9c0.4-0.2,2.7-0.8,7-1.7
		c2.5-0.5,4.9-1.7,7-3.6c1.8-1.6,2.8-3.3,2.8-5.1c0-1.4-0.4-2.5-1.2-3.2c-0.8-0.7-2.1-1-3.7-1c-4,0-8.3,1.6-13.1,4.8
		c-5.5,3.6-8.3,7.9-8.3,12.9c0,3.6,1.8,8,5.4,13.3c4,5.8,6,10.7,6,14.8c0,6-2.7,10.7-8,14.2c-3.3,2.1-7,3.2-11.2,3.2
		c-6.6,0-11.6-2.4-15-7.1c-2.4-3.3-3.6-7.3-3.6-11.9c0-5.3,1.4-9.8,4.1-13.4c1.8-2.4,3.6-3.6,5.5-3.6c1.7,0,2.6,0.7,2.6,2.1
		c0,0.5-0.3,1.4-0.9,2.5c-1.6,2.9-2.4,6.4-2.4,10.4c0,3.4,1.2,6.2,3.6,8.5c2.1,2.1,4.5,3.1,7.3,3.1c2.7,0,4.8-0.9,6.3-2.7
		c1.2-1.5,1.8-3.4,1.8-5.7c0-2.9-1.6-6.6-4.9-11.2c-4.5-6.3-6.8-12-6.8-17.1c0-6.8,3.7-12.9,11.2-18.1
		C585,68.4,592.7,65.9,600.8,65.9z"/>
	<path fill="#191919" d="M647.6,85l-1.4,3.1c-7.1,14.8-11.9,25.3-14.3,31.6c-3.7,9.8-5.8,15.6-6.3,17.2c-1.4,4.6-3.3,6.9-5.6,6.9
		c-1.6,0-3-0.8-4.2-2.3c-1-1.3-1.5-2.7-1.5-4.2c0-5.9,7.6-24.4,22.7-55.7c-2.7-2.1-4.1-4.1-4.1-6.2c0-1.6,0.7-2.9,2.1-4.1
		c1.2-1,2.4-1.4,3.8-1.4c1,0,2.2,0.2,3.8,0.7c11.1-21.2,17.7-34.7,19.6-40.5c-1.7,1-3.9,2.3-6.6,4.1c-1.5,1-2.8,1.4-4,1.4
		c-1.3,0-2.4-0.6-3.2-1.9c-0.5-0.9-0.8-1.8-0.8-2.8c0-3.2,2.8-6.7,8.3-10.4c4.4-2.9,8.6-5.4,12.4-7.4c0.6-1.6,1-2.8,1.1-3.4
		c0.7-2.6,1.4-4.3,2.2-5.2c0.8-0.9,1.9-1.3,3.5-1.3c3.2,0,4.8,1.8,4.8,5.3c4.7-1.4,8.9-2.4,12.5-3.1c3.6-0.7,6.7-1,9.2-1
		c6.6,0,12.2,2.5,16.8,7.6c4.3,4.8,6.5,10.2,6.5,16.1c0,10.3-4.3,20.6-12.9,31c-7.4,8.8-16.5,15.6-27.5,20.5
		c-9.4,4.2-18.9,6.3-28.3,6.3C653.9,85.9,651,85.6,647.6,85z M676.3,22.4c-2.3,6.8-5.9,15.4-11.1,26C659,61.3,654.9,69.7,653,73.7
		c3.8,0.7,6.4,1,7.9,1c7.8,0,16.9-3.1,27.3-9.4c10-6.2,17.9-13.8,23.6-22.9c3.5-5.5,5.2-10.5,5.2-14.8c0-3.9-1.3-6.8-3.9-8.8
		c-2.6-1.9-6.6-2.9-11.9-2.9c-4,0-8.1,0.5-12.3,1.6C684.7,18.6,680.6,20.3,676.3,22.4z"/>
	<path fill="#191919" d="M739.1,67.9c5.6,0,8.4,3.4,8.4,10.3c0,9.1-4.2,20.6-12.6,34.6c-9.2,15.1-18,22.7-26.6,22.7
		c-4,0-6.9-1.8-8.7-5.5c-1-1.8-1.4-4.1-1.4-6.7c0-8.7,3-18.3,9-28.5c5.6-9.5,12.2-16.9,19.8-22.1C731.4,69.4,735.5,67.9,739.1,67.9z
		 M728.4,106.6c-1.7-1.4-2.6-2.4-2.6-3.2c0-0.5,1.1-2.1,3.3-4.5c6.2-6.9,9.2-12.5,9.2-16.7c0-0.5-0.2-1.1-0.5-1.6
		c-0.5-1-1.4-1.5-2.6-1.5c-2.2,0-5.4,2.1-9.6,6.4c-5.5,5.5-9.6,11.1-12.5,16.9c-3.4,6.6-5,12.1-5,16.5c0,1.2,0.3,2.2,0.9,3.1
		c0.9,1.2,2,1.8,3.4,1.8c3.3,0,6.8-2.5,10.6-7.4c1.6-2.1,3-4.2,4-6.4C728,107.8,728.5,106.7,728.4,106.6z"/>
	<path fill="#191919" d="M766.9,100.3c6.7-7.2,14.4-14.2,23.2-21c3.1-2.5,6.5-4.8,10-6.9c1.8-1,2.9-1.5,3.4-1.5c1,0,2.1,0.8,3.1,2.3
		c0.6,0.8,0.9,1.6,0.9,2.3c0,1.2-1.3,2.9-3.9,5c-7,5.5-10.5,9.7-10.5,12.5c0,1.6,0.9,2.4,2.7,2.4c2.9,0,8-2.4,15.2-7.3
		c1.2-0.8,2.3-1.2,3.1-1.2c0.5,0,1.1,0.3,1.6,0.8c0.6,0.6,0.9,1.3,0.9,1.9c0,2.1-2.9,5.2-8.6,9.4c-6,4.5-11.7,6.8-17.1,6.8
		c-2.2,0-4.2-0.6-6-1.7c-1.6-1-2.4-2.7-2.4-5.1c0-1.7,0.7-3.7,2.2-5.8c-5.4,3.8-11.8,10.4-19.1,19.7c-4.2,5.7-8.4,12.8-12.6,21.2
		c-1.6,3.1-3.5,4.7-5.8,4.7c-2.5,0-3.8-1.2-3.8-3.6c0-2.3,2-8.5,5.9-18.7c5.9-15,12-26.7,18.5-35c4-5.1,7.3-7.7,9.9-7.7
		c0.9,0,1.7,0.3,2.5,0.8c0.9,0.7,1.3,1.5,1.3,2.6s-0.7,2.5-2.1,4.3c-0.3,0.3-2.1,2.6-5.4,6.9C770.9,92.3,768.5,96.3,766.9,100.3z"/>
	<path fill="#191919" d="M849.9,68c-4.4,6.9-8.5,14.6-12.3,23.2c-5.4,12.2-8.1,21.3-8.1,27.3c0,1.7,0.4,3,1.1,3.9
		c0.7,0.9,1.8,1.3,3.2,1.3c3.4,0,7.6-3.2,12.4-9.6c3.1-4,5.8-7.9,8.2-11.9c1.3-2.3,2.7-3.4,4.2-3.4c0.9,0,1.6,0.3,2.3,0.9
		c0.5,0.6,0.8,1.2,0.8,1.8c0,2.5-3.3,8.2-9.9,16.9c-7.9,10.5-15.2,15.8-21.7,15.8c-3.5,0-6.4-1.6-8.7-4.8c-1.4-2.1-2.2-5-2.2-8.7
		c0-8.3,2.4-17.9,7.2-28.9c1.2-2.7,4.4-9.3,9.6-19.8c-1.8,0.5-3.2,0.7-4.2,0.7c-1.4,0-2.7-0.3-3.8-1c-1.5-1-2.3-2.2-2.3-3.6
		c0-1.7,1-3.1,3-4.1c0.5-0.3,3.1-0.7,7.6-1.3c1.6-0.3,4-0.9,7.2-1.9c2.4-4.3,6.3-10.2,11.7-17.5c3-4.1,5.1-6.8,6.3-8
		c1.6-1.7,3.1-2.6,4.3-2.6c0.9,0,1.8,0.5,2.7,1.4c0.8,0.9,1.2,1.8,1.2,2.7c0,1.8-1.9,5.3-5.7,10.6c-2.5,3.4-4.4,6.2-5.6,8.3
		c7.6-2.1,13-3.1,16.3-3.1c3.8,0,5.6,1.6,5.6,4.7c0,1.6-0.7,2.7-1.9,3.5c-0.7,0.4-2.5,0.8-5.3,1c-1.2-0.1-6.3,1.2-15.5,3.9
		C854.9,66.4,852.4,67.1,849.9,68z"/>
	<path fill="#191919" d="M893.8,117.1c-2.3,4-4.5,7.3-6.7,10c-4.3,5.3-8.6,8-12.8,8c-3.7,0-6.6-1.7-8.6-5.2c-1.3-2.3-1.9-4.9-1.9-8
		c0-7.6,2.4-16,7.2-25.1c5.3-10.2,11.8-18,19.3-23.5c4.9-3.6,9.7-5.3,14.3-5.3c2.9,0,5.3,0.9,7.2,2.7c1.6,1.6,2.5,3.4,2.5,5.3
		c0,1.5-0.6,3.6-1.7,6.3c1,1.4,1.5,2.7,1.5,3.8c0,1.4-1,3.8-2.9,7.1c-2,3.4-4,7.8-5.9,13.3c-2.1,5.9-3.2,10.6-3.2,14.2
		c0,2.9,0.9,5.2,2.6,7.1c0.5,0.5,1.9,1.3,4.2,2.4c1.7,0.8,2.6,2.3,2.6,4.3c0,1.3-0.5,2.4-1.4,3.2c-1,0.9-2.2,1.3-3.6,1.3
		c-3.7,0-6.9-1.6-9.5-4.9c-2.2-2.7-3.3-6-3.3-10C893.4,122.5,893.5,120.2,893.8,117.1z M906.6,83.3c-0.8-1.5-1.7-2.6-2.7-3.3
		c-1-0.7-2-1.1-3.1-1.1c-5.2,0-10.8,4.5-16.9,13.6c-6.7,10-10,18.6-10,25.5c0,1.7,0.3,3,1,3.9c0.6,0.9,1.6,1.3,2.9,1.3
		c3.3,0,7.1-3.5,11.5-10.5c2.5-3.8,5.5-9.5,9.1-16.9c2.4-4.9,4.1-8.1,5.2-9.6C904.2,85.5,905.2,84.5,906.6,83.3z"/>
	<path fill="#191919" d="M934.8,100c-2.1,5.3-3.6,9.6-4.6,12.9s-1.5,5.6-1.5,6.9c0,1.7,0.8,2.6,2.5,2.6c2.5,0,5.6-2.3,9.5-7
		c1.8-2.3,4.6-6.3,8.2-12.2c1.4-2.3,2.9-3.5,4.5-3.5c1.8,0,2.7,0.9,2.7,2.6c0,2.9-3.4,8.9-10.2,17.8c-7,9.4-13.6,14-19.6,14
		c-2.6,0-4.7-1.1-6.4-3.3c-1.2-1.6-1.7-3.5-1.7-5.7c0-3.8,1.2-9.1,3.5-15.9s5.8-15,10.4-24.7c11.8-24.7,23.8-45,36-61
		c9.8-12.9,17.9-19.3,24.3-19.3c2.1,0,3.7,0.8,5,2.4c1.4,1.6,2.1,3.4,2.1,5.4c0,9.6-8.5,25.5-25.6,47.8
		c-7.7,9.9-16.8,19.8-27.5,29.7C943.5,92.1,939.7,95.6,934.8,100z M942.1,83.7c14.2-12.2,26.9-27.5,38.1-46.1
		c5.8-9.6,8.7-16,8.7-19.2c0-1.5-0.7-2.3-1.9-2.3c-3.8,0-10.6,7.5-20.5,22.5C958.3,50.8,950.2,65.9,942.1,83.7z"/>
</g>
<g>
	<path fill="#191919" d="M308.6,228.8c1.9-0.6,3.6-1.1,4.9-1.1c0.6,0,3.8,0,6.3,0c4.4,0,5.7,0.6,8.2,1.9c3,1.9,4.4,3.2,4.4,6.3
		c0,2.5-0.6,3-2.5,4.4c-0.6,0.6-2.7,1.9-3.2,2.5c-1.9,0.6-11.2,3-19.4,4.4c-3.8,1.3-3.6,1.1-3,4.9c0,2.5-0.8,11.8-1.3,20.5
		c-1.9,51.3-3,69.4-6.8,83.8c-0.6,2.5-5.5,6.3-9.3,5.7c-3,0-6.8-1.9-8.2-5.7c-1.3-1.9-1.3-38.2,0-56.2c0-6.8,0.6-20.5,0.6-31.2
		c0-18.8,0.2-18.8-3.6-18.8c-4.4,0-16.3-1.3-18.2-1.9c-3-1.3-5.5-2.5-6.8-4.4c-1.9-3.8-0.4-7.2,7-9.1c1.3-0.6,8.7-0.2,13.7-0.2
		c5.7,0,12.5-0.8,15-1.3C295.5,231.8,304.8,230.1,308.6,228.8z"/>
	<path fill="#191919" d="M339.9,266.2c1-34.4,1-34.4,3.8-36.3c3.8-2.9,12-2.9,15.8-1c5.5,2.9,6.5,6.5,5.5,24.1c0,9.3,0,22.4,0,28.9
		c-1,6.5-1,12.2-1,12.2s2.9-1.9,6.6-3.8c4.6-1.9,6.5-2.8,12-2.8c5.5,0,6.5,0,10.3,2.8c6.5,4.6,9.3,12.9,12.2,33.4
		c1.9,13.1,1.9,22.2,0,25.1c-2.9,7.4-19.6,6.7-21.5-0.8c0-1-1-5.5,0-9.3c0-9.3-0.8-32.7-2.7-38.2c-0.9-4.6-0.9-4.8-3.8-3.8
		c-1.9,0-5.5,1.9-8.4,3.8c-4.6,2.8-4.8,2.7-4.8,6.5c-0.9,6.5-3.6,38.2-5.5,42.8c-1.9,8.4-11.2,12.2-15.8,6.7
		c-3.8-3.8-4.8-8.6-3.8-33.6C339,310.7,339.9,285.8,339.9,266.2z"/>
	<path fill="#191919" d="M420.5,283.3c4.4-5.5,13.1-10.1,20.7-10.8c8.2-1.1,16,0.2,22,4.6c3.6,2.7,7,7.4,7.8,10.5
		c1.1,5.7-1.7,12.5-9.3,18.2c-1.1,0.8-2.5,1.3-2.9,1.7c-0.4,0.4-1.7,1.3-2.9,2.1c-5.7,3.6-14.6,5.5-19,4.8c-1.9-0.4-3.2-2.1-3.2-3.2
		c0-1.3,1.9-3.2,3.2-3.6c1.3-0.4,7.2-3.4,9.9-5.3c4.6-3,8.4-8.2,8-11.2c0-3.6-4.4-7.2-8-7.2c-4-0.4-8.7,3.8-11,9.3
		c-2.3,4.6-2.9,5.5-2.9,13.1c0,6.1,0.2,5.9,1.5,10.3c1.9,4.6,4,7.8,6.6,10.1c2.3,1.9,3.6,1.9,4.9,1.9c2.3,0,4.6-1.3,8.9-5.7
		c2.7-2.7,4.8-4.4,6.7-5.5c2.3-1.1,2.1-0.9,6.1-0.9c4,0,6.3,0.9,7.6,2.3c4.6,5.7-3,15.8-14.8,20.3c-4.9,2.3-9.3,3.2-15,3.2
		c-15.4,0-26.8-7.8-31.4-21.7c-1.9-5.5-2.3-9.7-1.9-15.8C412.7,296.1,415,289.8,420.5,283.3z"/>
	<path fill="#191919" d="M489.6,278.6c4.8-4.4,11.4-8.2,17.7-9.7c4.8-1.5,13.5-1,18.2,0.6c3.4,1.5,8.4,5.5,9.9,9.1
		c1.5,2.9,1.5,10.3,0,12.5c-2.7,4.4-10.5,6.3-14.8,3.4c-1.5-1.5-1.5-2.1-1.5-5.7c0.8-5.1-1.5-8.9-4.2-8.9c-2.3,0-8.4,4.8-10.6,7.6
		c-2.3,2.8-1.9,5.9,0.8,9.5c2.7,2.8,3.4,3,12.5,5.9c17.1,4.4,24.1,9.5,23.4,19.2c0,7.4-4.4,13.5-12,17.9c-4.4,2.3-5.7,2.1-14.1,2.1
		c-9.1,0.8-14.3,0.2-21.8-3.4c-4.4-2.3-5.7-4-4.9-6.8c0-2.3,1.1-3.8,5.5-5.3c2.7-0.8,3.6-0.6,8,1c2.7,0.8,6.8,1.5,9.1,1.5
		c5.7,0.8,7.6-0.8,9.1-4.4c1.5-2.3,1.5-3,0-4.6c-1.5-2.3-4.4-3.8-11.4-5.3c-17.1-4.4-25.3-11.8-25.3-22.8
		C482.4,286.8,484.9,283,489.6,278.6z"/>
	<path fill="#191919" d="M554.8,304.2c0.6-5.3,2.3-8.7,4.6-9.9c1.1-1.1,3-1.3,4.8-1.3c2.3,0,3,0.2,5.3,1.9c2.3,2.8,2.8,4.8,4.6,15.8
		c1.1,13.5,1.1,30.2,0,36.7c-1.7,7-4,10.1-8.2,12.3c-2.8,1.7-4.2,1.7-7.6,1.7c-5.9,0.6-9.3-1.1-10.5-4c-1.1-2.3-1.1-2.5,0.6-5.9
		c2.3-4.2,3.4-12.4,3.4-20C552.3,326.8,553.7,311.3,554.8,304.2z M552.9,278.6c0-4.2,1.9-7.2,4.8-8.4c3.4-1.7,10.1-0.4,12.3,2.5
		c0.6,0.6,1.1,2.3,1.7,4.6c0,2.9,0,4.2-0.6,5.3c-1.7,3.4-9.9,4.6-14.1,2.9C552.9,283.1,552.3,282,552.9,278.6z"/>
	<path fill="#191919" d="M587.7,278.6c4.8-4.4,11.4-8.2,17.7-9.7c4.8-1.5,13.5-1,18.2,0.6c3.4,1.5,8.4,5.5,9.9,9.1
		c1.5,2.9,1.5,10.3,0,12.5c-2.7,4.4-10.5,6.3-14.8,3.4c-1.5-1.5-1.5-2.1-1.5-5.7c0.8-5.1-1.5-8.9-4.2-8.9c-2.3,0-8.4,4.8-10.6,7.6
		c-2.3,2.8-1.9,5.9,0.8,9.5c2.7,2.8,3.4,3,12.5,5.9c17.1,4.4,24.1,9.5,23.4,19.2c0,7.4-4.4,13.5-12,17.9c-4.4,2.3-5.7,2.1-14.1,2.1
		c-9.1,0.8-14.3,0.2-21.9-3.4c-4.4-2.3-5.7-4-4.9-6.8c0-2.3,1.1-3.8,5.5-5.3c2.7-0.8,3.6-0.6,8,1c2.7,0.8,6.8,1.5,9.1,1.5
		c5.7,0.8,7.6-0.8,9.1-4.4c1.5-2.3,1.5-3,0-4.6c-1.5-2.3-4.4-3.8-11.4-5.3c-17.1-4.4-25.3-11.8-25.3-22.8
		C580.4,286.8,582.9,283,587.7,278.6z"/>
	<path fill="#191919" d="M646.8,265.9c0.6-36.9-0.2-34.2,6.5-36.9c5.3-1.9,10.6-1.3,15.2,2.7c1.9,1.3,1.9,1.1,4.6,0.6
		c4.6-1.9,8.5-3,15.2-2.5c6.7,0,16.3,1.3,17.7,3.2l1.3,0.6c1.9,0,8.7,4.8,10.6,8c2.7,2.7,5.9,9.1,7.2,13.1c0,1.9,0.6,6.1,0.6,10.6
		c0,5.9-0.8,7.8-1.3,11.8c-1.3,1.9-1.9,4-1.9,4c-0.6,0.6-1.3,1.3-1.3,2.7c-0.6,0.6-2.7,3.2-4.6,5.1c-8.5,8-19.8,11.2-36.9,11.2
		c-8,0-9.3,0.8-9.3,1.3c0,4-1.3,27-1.9,32.3c-2.7,23.8-4.6,28.3-13.1,28.3c-4,0-4.8-0.2-6.7-2.1c-1.3-1.9-2.7-3.2-2.7-5.9
		c-1.3-4-1.1-29.6-0.6-45.4C646,302.7,646.8,283.7,646.8,265.9z M698.6,261.3c0-11.2-1.9-16.5-6.5-20.5c-2.7-1.3-3.4-1.1-8-1.1
		c-2.7,0-6.6,0-8.5,0.6c-3.2,0.6-3.2,0.6-2.7,10.5c0,5.3-0.8,16-1.3,23.2c0,7.2,0,13.7,0,13.7c0,0.6,4,0,8,0
		c9.1-1.3,11.8-2.5,15-7.8C697.9,273.8,698.6,269.3,698.6,261.3z"/>
	<path fill="#191919" d="M763.6,270.4c0-0.8,1.7-1.7,3.4-1.7c3-1.7,9.3-0.8,13.1,1.7c2.5,0.8,6.3,4,9.3,6.5
		c17.9,19.4,15,48.5-7,59.1c-14.1,6.5-31.5,3.8-40.9-7.4c-5.5-5.7-6.8-11-6.1-19.2c0.8-13.1,4.6-22.8,10.8-29.3
		c4.8-4,8.5-6.7,14.1-7.4C762.1,272.7,763.6,272.1,763.6,270.4z M779.4,314.9c3-8.9,1.7-21.1-5.5-29.3c-3.8-4.9-6.1-4.9-11.6,0.8
		c-3,3.2-5.5,9.1-7.2,18.1c-0.8,8.9-0.2,12.9,2.8,16.9c2.5,3.2,7.2,5.7,9.7,4.9C771.4,325.5,776.9,319.8,779.4,314.9z"/>
	<path fill="#191919" d="M813.4,276.1c0.6-0.6,3.2-2.1,5.9-2.7c2.7,0,5.7,0,8.4,1.3c3.2,1.9,4.8,4.6,4.8,9.9c0,4-0.2,3.8,2.5,1.9
		c5.9-4,9.1-5.9,14.4-5.9c7.8,0,11,2.7,15,11.2c1.9,4.6,1.9,8.5,0,10.5c-3.2,2.7-8.9,3.8-14.3,1.9c-3.2-0.6-5.3-3.2-5.9-7.2
		c-0.6-3.2-0.8-3.2-3.4-2.7c-1.3,1.3-3.8,2.1-5.1,2.7c-2.7,1.3-2.7,1.3-2.1,4c0,1.3,0.8,9.1,1.3,16.3c1.3,15.8,0.6,26.2-1.3,30.2
		c-2.7,4-7.8,6.5-14.3,6.5c-9.1,0-13.9-5.3-10.6-11.2c1.3-2.7,1.3-2.7,1.3-32.1C810,279.9,810.2,280.1,813.4,276.1z"/>
	<path fill="#191919" d="M885,231.1c1.3-1.3,2.5-2.1,3.8-2.7c4.6-1.3,11-0.6,14.3,1.3c4.6,3.2,5.9,11,5.3,29.3
		c-0.6,6.5-0.8,11.6-0.8,11.6c0,0.6,1.9,0,4.6-0.6c3.8-0.6,4.6-0.6,7.8,0c5.9,1.9,7.2,5.7,2.7,8.4c-1.9,1.3-7.8,2.7-13.7,4
		c-1.9,0.6-2.1,0.6-2.7,5.1c0,2.7-0.6,11-1.1,19.4c0,7.8-0.8,16.9-1.3,19.6c-0.6,10.5,0,19.4,1.9,18.8c0.6,0,1.3-2.1,1.9-4
		c0-1.3,1.3-3.8,2.7-5.1c1.3-1.3,1.9-1.9,4.6-1.3c3.8,0,5.1,0.8,7.8,2.7c3.8,3.8,3,11-0.8,15.6c-7.2,7.2-19.4,8.9-29.8,3.8
		c-3.8-1.9-8.4-6.5-8.9-8.4c-0.6-1.3-0.8-2.7-1.3-2.7c-0.6-1.3-1.3-19.4-0.8-35c1.9-31.2,1.9-27.4,0-27.9c-1.3,0-3.2-0.6-4.6-0.6
		c-2.7-0.6-5.1-3.2-5.1-4.6c0-2.7,2.7-4,7.2-4.6c4.6-0.6,4.6-0.6,5.1-9.7c0-5.1,0.6-14.3,0-20.1C883.7,233,883.7,233,885,231.1z"/>
	<path fill="#191919" d="M944.1,286.9c2.3-1.5,13.1-4.2,16.9-4.8c8-1.5,14.3-0.4,19.2,2.3c3,1.9,8,6.6,9.3,9.9
		c1.3,2.7,2.1,7,2.7,11.6c0.6,3.2-1,23.6-2.3,44.7c-0.6,8-0.4,8,1.3,9.5c1.1,1.5,1.3,1.1,1.3,2.7c0,1.9-0.4,2.7-1.7,4.2
		c-3,3.2-8.2,4.6-14.1,3c-5.9-1.5-9.3-4.2-10.6-7.8c-0.6-1.9-0.2-1.5-5.1-2.1c-13.7,0-24.9-5.5-28.5-13.9c-1.7-3.6-1.7-9.7-0.4-13.9
		c2.3-5.7,9.5-11.2,16.5-12.7c3.6-1.1,12.4-1.1,16.5,0c1.3,0,3,0,3,0c0.6-0.6,1.9-14.6,1.3-17.3c-0.6-2.7-1.5-7.4-2.8-8.6
		c-1.1-1.1-9.5-2.1-14.8-1c-4.9,0.6-9.3,0-10.5-1.5C940.9,290.2,941.8,288.5,944.1,286.9z M966.9,337.3c0.6-4.6,1-9.1,1-9.7
		c0-0.6-0.6-0.4-4.4-0.4s-5.5-0.2-7.2,1c-5.3,2.5-7,9.3-4.4,15.4c2.3,4.6,4.2,5.9,10.6,6.5C966.3,350.6,965.6,351.9,966.9,337.3z"/>
	<path fill="#191919" d="M1000.9,231.1c0,0,2.7-2.7,4-2.7c1.3-1.3,5.1-1.3,9.1-1.3c5.3,0,6.5,1.3,9.1,4c4,4,4,4,2.7,38
		c-1.3,52.4-3.8,84.9-9.1,90.3c-4,2.7-11.8,2.7-15.8-1.3c-2.7-2.7-2.7-2.5-1.3-62.7C999.6,261.3,1000.9,232.4,1000.9,231.1z"/>
</g>
</svg>
