<svg width="19" height="16" viewBox="0 0 19 16" xmlns="http://www.w3.org/2000/svg"><title>medium-icon</title><g fill="#70727E" fill-rule="evenodd"><path d="M18.792 2.935l-.011-.009-.006-.003-5.66-2.838a.626.626 0 0 0-.275-.064.647.647 0 0 0-.548.3L9.034 5.63l4.089 6.663 5.686-9.268a.07.07 0 0 0-.017-.09M7.24 4.421v6.044l5.356 2.687-5.356-8.73M13.401 13.555l4.41 2.211c.573.288 1.038.087 1.038-.45V4.676l-5.448 8.88M6.31 2.944L.783.172A.633.633 0 0 0 .503.1C.26.099.09.286.09.602v11.967c0 .32.233.7.519.843l4.868 2.441a.79.79 0 0 0 .35.092c.303 0 .515-.234.515-.629V2.998a.061.061 0 0 0-.033-.054"/></g></svg>