<svg width="19" height="16" viewBox="0 0 19 16" xmlns="http://www.w3.org/2000/svg"><title>twitter-icon</title><path d="M6.383 15.984c-2.672.15-4.602-.75-6.383-1.802 1.93.3 4.453-.45 5.79-1.65-1.93-.15-3.118-1.201-3.712-2.852.594.15 1.188 0 1.633 0C1.93 9.08.742 8.029.594 5.627c.445.3 1.039.45 1.633.45C.89 5.328 0 2.477 1.039.675c1.93 2.102 4.305 3.903 8.164 4.203-1.039-4.203 4.602-6.454 6.828-3.602 1.04-.15 1.782-.6 2.524-.9-.297 1.05-.89 1.65-1.633 2.25.742-.15 1.484-.3 2.078-.6-.148.75-.89 1.351-1.633 1.951-.148 6.905-4.453 11.707-10.984 12.008z" fill="#60626F" fill-rule="evenodd" opacity=".898"/></svg>